# MagicaVoxel @ ephtracy

# material
mtllib danger room wall.mtl
usemtl palette

# normals
vn -1 0 0
vn 1 0 0
vn 0 0 1
vn 0 0 -1
vn 0 -1 0
vn 0 1 0

# texcoords
vt 0.744141 0.5
vt 0.775391 0.5
vt 0.970703 0.5
vt 0.990234 0.5

# verts
v -2.5 0 22.5
v -2.5 0 -22.5
v -2.5 1 21.5
v -2.5 1 0.5
v -2.5 1 -0.5
v -2.5 1 -21.5
v -2.5 2 20.5
v -2.5 2 1.5
v -2.5 2 -1.5
v -2.5 2 -20.5
v -2.5 3 19.5
v -2.5 3 17.5
v -2.5 3 4.5
v -2.5 3 2.5
v -2.5 3 -2.5
v -2.5 3 -4.5
v -2.5 3 -17.5
v -2.5 3 -19.5
v -2.5 5 19.5
v -2.5 5 17.5
v -2.5 5 4.5
v -2.5 5 2.5
v -2.5 5 -2.5
v -2.5 5 -4.5
v -2.5 5 -17.5
v -2.5 5 -19.5
v -2.5 18 19.5
v -2.5 18 17.5
v -2.5 18 4.5
v -2.5 18 2.5
v -2.5 18 -2.5
v -2.5 18 -4.5
v -2.5 18 -17.5
v -2.5 18 -19.5
v -2.5 20 19.5
v -2.5 20 17.5
v -2.5 20 4.5
v -2.5 20 2.5
v -2.5 20 -2.5
v -2.5 20 -4.5
v -2.5 20 -17.5
v -2.5 20 -19.5
v -2.5 21 20.5
v -2.5 21 1.5
v -2.5 21 -1.5
v -2.5 21 -20.5
v -2.5 22 21.5
v -2.5 22 0.5
v -2.5 22 -0.5
v -2.5 22 -21.5
v -2.5 23 21.5
v -2.5 23 0.5
v -2.5 23 -0.5
v -2.5 23 -21.5
v -2.5 24 20.5
v -2.5 24 1.5
v -2.5 24 -1.5
v -2.5 24 -20.5
v -2.5 25 19.5
v -2.5 25 17.5
v -2.5 25 4.5
v -2.5 25 2.5
v -2.5 25 -2.5
v -2.5 25 -4.5
v -2.5 25 -17.5
v -2.5 25 -19.5
v -2.5 27 19.5
v -2.5 27 17.5
v -2.5 27 4.5
v -2.5 27 2.5
v -2.5 27 -2.5
v -2.5 27 -4.5
v -2.5 27 -17.5
v -2.5 27 -19.5
v -2.5 40 19.5
v -2.5 40 17.5
v -2.5 40 4.5
v -2.5 40 2.5
v -2.5 40 -2.5
v -2.5 40 -4.5
v -2.5 40 -17.5
v -2.5 40 -19.5
v -2.5 42 19.5
v -2.5 42 17.5
v -2.5 42 4.5
v -2.5 42 2.5
v -2.5 42 -2.5
v -2.5 42 -4.5
v -2.5 42 -17.5
v -2.5 42 -19.5
v -2.5 43 20.5
v -2.5 43 1.5
v -2.5 43 -1.5
v -2.5 43 -20.5
v -2.5 44 21.5
v -2.5 44 0.5
v -2.5 44 -0.5
v -2.5 44 -21.5
v -2.5 45 22.5
v -2.5 45 -22.5
v -1.5 0 22.5
v -1.5 0 -22.5
v -1.5 1 21.5
v -1.5 1 0.5
v -1.5 1 -0.5
v -1.5 1 -21.5
v -1.5 2 20.5
v -1.5 2 1.5
v -1.5 2 -1.5
v -1.5 2 -20.5
v -1.5 3 19.5
v -1.5 3 17.5
v -1.5 3 4.5
v -1.5 3 2.5
v -1.5 3 -2.5
v -1.5 3 -4.5
v -1.5 3 -17.5
v -1.5 3 -19.5
v -1.5 5 19.5
v -1.5 5 17.5
v -1.5 5 4.5
v -1.5 5 2.5
v -1.5 5 -2.5
v -1.5 5 -4.5
v -1.5 5 -17.5
v -1.5 5 -19.5
v -1.5 18 19.5
v -1.5 18 17.5
v -1.5 18 4.5
v -1.5 18 2.5
v -1.5 18 -2.5
v -1.5 18 -4.5
v -1.5 18 -17.5
v -1.5 18 -19.5
v -1.5 20 19.5
v -1.5 20 17.5
v -1.5 20 4.5
v -1.5 20 2.5
v -1.5 20 -2.5
v -1.5 20 -4.5
v -1.5 20 -17.5
v -1.5 20 -19.5
v -1.5 21 20.5
v -1.5 21 1.5
v -1.5 21 -1.5
v -1.5 21 -20.5
v -1.5 22 21.5
v -1.5 22 0.5
v -1.5 22 -0.5
v -1.5 22 -21.5
v -1.5 23 21.5
v -1.5 23 0.5
v -1.5 23 -0.5
v -1.5 23 -21.5
v -1.5 24 20.5
v -1.5 24 1.5
v -1.5 24 -1.5
v -1.5 24 -20.5
v -1.5 25 19.5
v -1.5 25 17.5
v -1.5 25 4.5
v -1.5 25 2.5
v -1.5 25 -2.5
v -1.5 25 -4.5
v -1.5 25 -17.5
v -1.5 25 -19.5
v -1.5 27 19.5
v -1.5 27 17.5
v -1.5 27 4.5
v -1.5 27 2.5
v -1.5 27 -2.5
v -1.5 27 -4.5
v -1.5 27 -17.5
v -1.5 27 -19.5
v -1.5 40 19.5
v -1.5 40 17.5
v -1.5 40 4.5
v -1.5 40 2.5
v -1.5 40 -2.5
v -1.5 40 -4.5
v -1.5 40 -17.5
v -1.5 40 -19.5
v -1.5 42 19.5
v -1.5 42 17.5
v -1.5 42 4.5
v -1.5 42 2.5
v -1.5 42 -2.5
v -1.5 42 -4.5
v -1.5 42 -17.5
v -1.5 42 -19.5
v -1.5 43 20.5
v -1.5 43 1.5
v -1.5 43 -1.5
v -1.5 43 -20.5
v -1.5 44 21.5
v -1.5 44 0.5
v -1.5 44 -0.5
v -1.5 44 -21.5
v -1.5 45 22.5
v -1.5 45 -22.5
v -2.5 0 22.5
v -2.5 45 22.5
v -1.5 0 22.5
v -1.5 45 22.5
v -2.5 0 -22.5
v -2.5 45 -22.5
v -1.5 0 -22.5
v -1.5 45 -22.5
v -2.5 0 22.5
v -1.5 0 22.5
v -2.5 0 -22.5
v -1.5 0 -22.5
v -2.5 45 22.5
v -1.5 45 22.5
v -2.5 45 -22.5
v -1.5 45 -22.5

# faces
f 3/2/1 2/2/1 1/2/1
f 4/2/1 2/2/1 3/2/1
f 5/2/1 2/2/1 4/2/1
f 6/2/1 2/2/1 5/2/1
f 7/1/1 4/1/1 3/1/1
f 8/1/1 4/1/1 7/1/1
f 9/1/1 6/1/1 5/1/1
f 10/1/1 6/1/1 9/1/1
f 11/3/1 8/3/1 7/3/1
f 12/3/1 8/3/1 11/3/1
f 13/3/1 8/3/1 12/3/1
f 14/3/1 8/3/1 13/3/1
f 15/3/1 10/3/1 9/3/1
f 16/3/1 10/3/1 15/3/1
f 17/3/1 10/3/1 16/3/1
f 18/3/1 10/3/1 17/3/1
f 19/3/1 11/3/1 7/3/1
f 19/4/1 12/4/1 11/4/1
f 20/3/1 13/3/1 12/3/1
f 20/4/1 12/4/1 19/4/1
f 21/4/1 14/4/1 13/4/1
f 21/3/1 13/3/1 20/3/1
f 22/3/1 8/3/1 14/3/1
f 22/4/1 14/4/1 21/4/1
f 23/3/1 15/3/1 9/3/1
f 23/4/1 16/4/1 15/4/1
f 24/3/1 17/3/1 16/3/1
f 24/4/1 16/4/1 23/4/1
f 25/4/1 18/4/1 17/4/1
f 25/3/1 17/3/1 24/3/1
f 26/3/1 10/3/1 18/3/1
f 26/4/1 18/4/1 25/4/1
f 27/3/1 21/3/1 20/3/1
f 27/3/1 19/3/1 7/3/1
f 27/3/1 20/3/1 19/3/1
f 27/3/1 22/3/1 21/3/1
f 28/3/1 22/3/1 27/3/1
f 29/3/1 22/3/1 28/3/1
f 30/3/1 8/3/1 22/3/1
f 30/3/1 22/3/1 29/3/1
f 31/3/1 25/3/1 24/3/1
f 31/3/1 24/3/1 23/3/1
f 31/3/1 26/3/1 25/3/1
f 31/3/1 23/3/1 9/3/1
f 32/3/1 26/3/1 31/3/1
f 33/3/1 26/3/1 32/3/1
f 34/3/1 10/3/1 26/3/1
f 34/3/1 26/3/1 33/3/1
f 35/4/1 28/4/1 27/4/1
f 35/3/1 27/3/1 7/3/1
f 36/3/1 29/3/1 28/3/1
f 36/4/1 28/4/1 35/4/1
f 37/4/1 30/4/1 29/4/1
f 37/3/1 29/3/1 36/3/1
f 38/3/1 8/3/1 30/3/1
f 38/4/1 30/4/1 37/4/1
f 39/3/1 31/3/1 9/3/1
f 39/4/1 32/4/1 31/4/1
f 40/3/1 33/3/1 32/3/1
f 40/4/1 32/4/1 39/4/1
f 41/4/1 34/4/1 33/4/1
f 41/3/1 33/3/1 40/3/1
f 42/3/1 10/3/1 34/3/1
f 42/4/1 34/4/1 41/4/1
f 43/1/1 7/1/1 3/1/1
f 43/3/1 37/3/1 36/3/1
f 43/3/1 36/3/1 35/3/1
f 43/3/1 38/3/1 37/3/1
f 43/3/1 35/3/1 7/3/1
f 44/1/1 4/1/1 8/1/1
f 44/3/1 38/3/1 43/3/1
f 44/3/1 8/3/1 38/3/1
f 45/1/1 9/1/1 5/1/1
f 45/3/1 39/3/1 9/3/1
f 45/3/1 42/3/1 41/3/1
f 45/3/1 41/3/1 40/3/1
f 45/3/1 40/3/1 39/3/1
f 46/3/1 10/3/1 42/3/1
f 46/3/1 42/3/1 45/3/1
f 46/1/1 6/1/1 10/1/1
f 47/2/1 3/2/1 1/2/1
f 47/1/1 43/1/1 3/1/1
f 47/1/1 44/1/1 43/1/1
f 48/2/1 5/2/1 4/2/1
f 48/1/1 44/1/1 47/1/1
f 48/1/1 4/1/1 44/1/1
f 49/1/1 46/1/1 45/1/1
f 49/2/1 5/2/1 48/2/1
f 49/1/1 45/1/1 5/1/1
f 50/1/1 6/1/1 46/1/1
f 50/1/1 46/1/1 49/1/1
f 50/2/1 2/2/1 6/2/1
f 51/2/1 49/2/1 48/2/1
f 51/2/1 48/2/1 47/2/1
f 51/2/1 50/2/1 49/2/1
f 51/2/1 47/2/1 1/2/1
f 52/2/1 50/2/1 51/2/1
f 53/2/1 50/2/1 52/2/1
f 54/2/1 2/2/1 50/2/1
f 54/2/1 50/2/1 53/2/1
f 55/1/1 52/1/1 51/1/1
f 56/1/1 52/1/1 55/1/1
f 57/1/1 54/1/1 53/1/1
f 58/1/1 54/1/1 57/1/1
f 59/3/1 56/3/1 55/3/1
f 60/3/1 56/3/1 59/3/1
f 61/3/1 56/3/1 60/3/1
f 62/3/1 56/3/1 61/3/1
f 63/3/1 58/3/1 57/3/1
f 64/3/1 58/3/1 63/3/1
f 65/3/1 58/3/1 64/3/1
f 66/3/1 58/3/1 65/3/1
f 67/3/1 59/3/1 55/3/1
f 67/4/1 60/4/1 59/4/1
f 68/3/1 61/3/1 60/3/1
f 68/4/1 60/4/1 67/4/1
f 69/4/1 62/4/1 61/4/1
f 69/3/1 61/3/1 68/3/1
f 70/3/1 56/3/1 62/3/1
f 70/4/1 62/4/1 69/4/1
f 71/3/1 63/3/1 57/3/1
f 71/4/1 64/4/1 63/4/1
f 72/3/1 65/3/1 64/3/1
f 72/4/1 64/4/1 71/4/1
f 73/4/1 66/4/1 65/4/1
f 73/3/1 65/3/1 72/3/1
f 74/3/1 58/3/1 66/3/1
f 74/4/1 66/4/1 73/4/1
f 75/3/1 69/3/1 68/3/1
f 75/3/1 67/3/1 55/3/1
f 75/3/1 68/3/1 67/3/1
f 75/3/1 70/3/1 69/3/1
f 76/3/1 70/3/1 75/3/1
f 77/3/1 70/3/1 76/3/1
f 78/3/1 56/3/1 70/3/1
f 78/3/1 70/3/1 77/3/1
f 79/3/1 73/3/1 72/3/1
f 79/3/1 72/3/1 71/3/1
f 79/3/1 74/3/1 73/3/1
f 79/3/1 71/3/1 57/3/1
f 80/3/1 74/3/1 79/3/1
f 81/3/1 74/3/1 80/3/1
f 82/3/1 58/3/1 74/3/1
f 82/3/1 74/3/1 81/3/1
f 83/4/1 76/4/1 75/4/1
f 83/3/1 75/3/1 55/3/1
f 84/3/1 77/3/1 76/3/1
f 84/4/1 76/4/1 83/4/1
f 85/4/1 78/4/1 77/4/1
f 85/3/1 77/3/1 84/3/1
f 86/3/1 56/3/1 78/3/1
f 86/4/1 78/4/1 85/4/1
f 87/3/1 79/3/1 57/3/1
f 87/4/1 80/4/1 79/4/1
f 88/3/1 81/3/1 80/3/1
f 88/4/1 80/4/1 87/4/1
f 89/4/1 82/4/1 81/4/1
f 89/3/1 81/3/1 88/3/1
f 90/3/1 58/3/1 82/3/1
f 90/4/1 82/4/1 89/4/1
f 91/1/1 55/1/1 51/1/1
f 91/3/1 85/3/1 84/3/1
f 91/3/1 84/3/1 83/3/1
f 91/3/1 86/3/1 85/3/1
f 91/3/1 83/3/1 55/3/1
f 92/1/1 52/1/1 56/1/1
f 92/3/1 86/3/1 91/3/1
f 92/3/1 56/3/1 86/3/1
f 93/1/1 57/1/1 53/1/1
f 93/3/1 87/3/1 57/3/1
f 93/3/1 90/3/1 89/3/1
f 93/3/1 89/3/1 88/3/1
f 93/3/1 88/3/1 87/3/1
f 94/3/1 58/3/1 90/3/1
f 94/3/1 90/3/1 93/3/1
f 94/1/1 54/1/1 58/1/1
f 95/2/1 51/2/1 1/2/1
f 95/1/1 91/1/1 51/1/1
f 95/1/1 92/1/1 91/1/1
f 96/2/1 53/2/1 52/2/1
f 96/1/1 92/1/1 95/1/1
f 96/1/1 52/1/1 92/1/1
f 97/1/1 94/1/1 93/1/1
f 97/2/1 53/2/1 96/2/1
f 97/1/1 93/1/1 53/1/1
f 98/1/1 54/1/1 94/1/1
f 98/1/1 94/1/1 97/1/1
f 98/2/1 2/2/1 54/2/1
f 99/2/1 95/2/1 1/2/1
f 99/2/1 97/2/1 96/2/1
f 99/2/1 98/2/1 97/2/1
f 99/2/1 96/2/1 95/2/1
f 100/2/1 2/2/1 98/2/1
f 100/2/1 98/2/1 99/2/1
f 101/2/2 102/2/2 103/2/2
f 103/2/2 102/2/2 104/2/2
f 104/2/2 102/2/2 105/2/2
f 105/2/2 102/2/2 106/2/2
f 103/1/2 104/1/2 107/1/2
f 107/1/2 104/1/2 108/1/2
f 105/1/2 106/1/2 109/1/2
f 109/1/2 106/1/2 110/1/2
f 107/3/2 108/3/2 111/3/2
f 111/3/2 108/3/2 112/3/2
f 112/3/2 108/3/2 113/3/2
f 113/3/2 108/3/2 114/3/2
f 109/3/2 110/3/2 115/3/2
f 115/3/2 110/3/2 116/3/2
f 116/3/2 110/3/2 117/3/2
f 117/3/2 110/3/2 118/3/2
f 107/3/2 111/3/2 119/3/2
f 111/4/2 112/4/2 119/4/2
f 112/3/2 113/3/2 120/3/2
f 119/4/2 112/4/2 120/4/2
f 113/4/2 114/4/2 121/4/2
f 120/3/2 113/3/2 121/3/2
f 114/3/2 108/3/2 122/3/2
f 121/4/2 114/4/2 122/4/2
f 109/3/2 115/3/2 123/3/2
f 115/4/2 116/4/2 123/4/2
f 116/3/2 117/3/2 124/3/2
f 123/4/2 116/4/2 124/4/2
f 117/4/2 118/4/2 125/4/2
f 124/3/2 117/3/2 125/3/2
f 118/3/2 110/3/2 126/3/2
f 125/4/2 118/4/2 126/4/2
f 120/3/2 121/3/2 127/3/2
f 107/3/2 119/3/2 127/3/2
f 119/3/2 120/3/2 127/3/2
f 121/3/2 122/3/2 127/3/2
f 127/3/2 122/3/2 128/3/2
f 128/3/2 122/3/2 129/3/2
f 122/3/2 108/3/2 130/3/2
f 129/3/2 122/3/2 130/3/2
f 124/3/2 125/3/2 131/3/2
f 123/3/2 124/3/2 131/3/2
f 125/3/2 126/3/2 131/3/2
f 109/3/2 123/3/2 131/3/2
f 131/3/2 126/3/2 132/3/2
f 132/3/2 126/3/2 133/3/2
f 126/3/2 110/3/2 134/3/2
f 133/3/2 126/3/2 134/3/2
f 127/4/2 128/4/2 135/4/2
f 107/3/2 127/3/2 135/3/2
f 128/3/2 129/3/2 136/3/2
f 135/4/2 128/4/2 136/4/2
f 129/4/2 130/4/2 137/4/2
f 136/3/2 129/3/2 137/3/2
f 130/3/2 108/3/2 138/3/2
f 137/4/2 130/4/2 138/4/2
f 109/3/2 131/3/2 139/3/2
f 131/4/2 132/4/2 139/4/2
f 132/3/2 133/3/2 140/3/2
f 139/4/2 132/4/2 140/4/2
f 133/4/2 134/4/2 141/4/2
f 140/3/2 133/3/2 141/3/2
f 134/3/2 110/3/2 142/3/2
f 141/4/2 134/4/2 142/4/2
f 103/1/2 107/1/2 143/1/2
f 136/3/2 137/3/2 143/3/2
f 135/3/2 136/3/2 143/3/2
f 137/3/2 138/3/2 143/3/2
f 107/3/2 135/3/2 143/3/2
f 108/1/2 104/1/2 144/1/2
f 143/3/2 138/3/2 144/3/2
f 138/3/2 108/3/2 144/3/2
f 105/1/2 109/1/2 145/1/2
f 109/3/2 139/3/2 145/3/2
f 141/3/2 142/3/2 145/3/2
f 140/3/2 141/3/2 145/3/2
f 139/3/2 140/3/2 145/3/2
f 142/3/2 110/3/2 146/3/2
f 145/3/2 142/3/2 146/3/2
f 110/1/2 106/1/2 146/1/2
f 101/2/2 103/2/2 147/2/2
f 103/1/2 143/1/2 147/1/2
f 143/1/2 144/1/2 147/1/2
f 104/2/2 105/2/2 148/2/2
f 147/1/2 144/1/2 148/1/2
f 144/1/2 104/1/2 148/1/2
f 145/1/2 146/1/2 149/1/2
f 148/2/2 105/2/2 149/2/2
f 105/1/2 145/1/2 149/1/2
f 146/1/2 106/1/2 150/1/2
f 149/1/2 146/1/2 150/1/2
f 106/2/2 102/2/2 150/2/2
f 148/2/2 149/2/2 151/2/2
f 147/2/2 148/2/2 151/2/2
f 149/2/2 150/2/2 151/2/2
f 101/2/2 147/2/2 151/2/2
f 151/2/2 150/2/2 152/2/2
f 152/2/2 150/2/2 153/2/2
f 150/2/2 102/2/2 154/2/2
f 153/2/2 150/2/2 154/2/2
f 151/1/2 152/1/2 155/1/2
f 155/1/2 152/1/2 156/1/2
f 153/1/2 154/1/2 157/1/2
f 157/1/2 154/1/2 158/1/2
f 155/3/2 156/3/2 159/3/2
f 159/3/2 156/3/2 160/3/2
f 160/3/2 156/3/2 161/3/2
f 161/3/2 156/3/2 162/3/2
f 157/3/2 158/3/2 163/3/2
f 163/3/2 158/3/2 164/3/2
f 164/3/2 158/3/2 165/3/2
f 165/3/2 158/3/2 166/3/2
f 155/3/2 159/3/2 167/3/2
f 159/4/2 160/4/2 167/4/2
f 160/3/2 161/3/2 168/3/2
f 167/4/2 160/4/2 168/4/2
f 161/4/2 162/4/2 169/4/2
f 168/3/2 161/3/2 169/3/2
f 162/3/2 156/3/2 170/3/2
f 169/4/2 162/4/2 170/4/2
f 157/3/2 163/3/2 171/3/2
f 163/4/2 164/4/2 171/4/2
f 164/3/2 165/3/2 172/3/2
f 171/4/2 164/4/2 172/4/2
f 165/4/2 166/4/2 173/4/2
f 172/3/2 165/3/2 173/3/2
f 166/3/2 158/3/2 174/3/2
f 173/4/2 166/4/2 174/4/2
f 168/3/2 169/3/2 175/3/2
f 155/3/2 167/3/2 175/3/2
f 167/3/2 168/3/2 175/3/2
f 169/3/2 170/3/2 175/3/2
f 175/3/2 170/3/2 176/3/2
f 176/3/2 170/3/2 177/3/2
f 170/3/2 156/3/2 178/3/2
f 177/3/2 170/3/2 178/3/2
f 172/3/2 173/3/2 179/3/2
f 171/3/2 172/3/2 179/3/2
f 173/3/2 174/3/2 179/3/2
f 157/3/2 171/3/2 179/3/2
f 179/3/2 174/3/2 180/3/2
f 180/3/2 174/3/2 181/3/2
f 174/3/2 158/3/2 182/3/2
f 181/3/2 174/3/2 182/3/2
f 175/4/2 176/4/2 183/4/2
f 155/3/2 175/3/2 183/3/2
f 176/3/2 177/3/2 184/3/2
f 183/4/2 176/4/2 184/4/2
f 177/4/2 178/4/2 185/4/2
f 184/3/2 177/3/2 185/3/2
f 178/3/2 156/3/2 186/3/2
f 185/4/2 178/4/2 186/4/2
f 157/3/2 179/3/2 187/3/2
f 179/4/2 180/4/2 187/4/2
f 180/3/2 181/3/2 188/3/2
f 187/4/2 180/4/2 188/4/2
f 181/4/2 182/4/2 189/4/2
f 188/3/2 181/3/2 189/3/2
f 182/3/2 158/3/2 190/3/2
f 189/4/2 182/4/2 190/4/2
f 151/1/2 155/1/2 191/1/2
f 184/3/2 185/3/2 191/3/2
f 183/3/2 184/3/2 191/3/2
f 185/3/2 186/3/2 191/3/2
f 155/3/2 183/3/2 191/3/2
f 156/1/2 152/1/2 192/1/2
f 191/3/2 186/3/2 192/3/2
f 186/3/2 156/3/2 192/3/2
f 153/1/2 157/1/2 193/1/2
f 157/3/2 187/3/2 193/3/2
f 189/3/2 190/3/2 193/3/2
f 188/3/2 189/3/2 193/3/2
f 187/3/2 188/3/2 193/3/2
f 190/3/2 158/3/2 194/3/2
f 193/3/2 190/3/2 194/3/2
f 158/1/2 154/1/2 194/1/2
f 101/2/2 151/2/2 195/2/2
f 151/1/2 191/1/2 195/1/2
f 191/1/2 192/1/2 195/1/2
f 152/2/2 153/2/2 196/2/2
f 195/1/2 192/1/2 196/1/2
f 192/1/2 152/1/2 196/1/2
f 193/1/2 194/1/2 197/1/2
f 196/2/2 153/2/2 197/2/2
f 153/1/2 193/1/2 197/1/2
f 194/1/2 154/1/2 198/1/2
f 197/1/2 194/1/2 198/1/2
f 154/2/2 102/2/2 198/2/2
f 101/2/2 195/2/2 199/2/2
f 196/2/2 197/2/2 199/2/2
f 197/2/2 198/2/2 199/2/2
f 195/2/2 196/2/2 199/2/2
f 198/2/2 102/2/2 200/2/2
f 199/2/2 198/2/2 200/2/2
f 203/2/3 202/2/3 201/2/3
f 204/2/3 202/2/3 203/2/3
f 205/2/4 206/2/4 207/2/4
f 207/2/4 206/2/4 208/2/4
f 211/2/5 210/2/5 209/2/5
f 212/2/5 210/2/5 211/2/5
f 213/2/6 214/2/6 215/2/6
f 215/2/6 214/2/6 216/2/6
